<svg height="16" viewBox="0 0 16 16" width="16" xmlns="http://www.w3.org/2000/svg"><path d="m11.3333333 13.3333333c1.1045695 0 2-.8954305 2-2s-.8954305-1.99999997-2-1.99999997-1.99999997.89543047-1.99999997 1.99999997.89543047 2 1.99999997 2zm0 .6666667c-1.4727593 0-2.66666663-1.1939073-2.66666663-2.6666667 0-1.4727593 1.19390733-2.66666663 2.66666663-2.66666663 1.4727594 0 2.6666667 1.19390733 2.6666667 2.66666663 0 1.4727594-1.1939073 2.6666667-2.6666667 2.6666667zm-7.99999997-11.33333333c-.36818983 0-.66666666.29847683-.66666666.66666666v2.66666667c0 .36818983.29847683.66666667.66666666.66666667h2.66666667c.36818983 0 .66666667-.29847684.66666667-.66666667v-2.66666667c0-.36818983-.29847684-.66666666-.66666667-.66666666zm0-.66666667h2.66666667c.73637967 0 1.33333333.59695367 1.33333333 1.33333333v2.66666667c0 .73637967-.59695366 1.33333333-1.33333333 1.33333333h-2.66666667c-.73637966 0-1.33333333-.59695366-1.33333333-1.33333333v-2.66666667c0-.73637966.59695367-1.33333333 1.33333333-1.33333333zm8.45109257.15123418 1.9235493 1.45643172c.2474648.18737012.3507998.5078019.258858.80269375l-.7495004 2.40392889c-.0962139.3085938-.3840692.51904479-.7099506.51904479h-2.3480977c-.32588147 0-.61373678-.21045099-.7099506-.51904479l-.74950043-2.40392889c-.09194181-.29489185.01139315-.61532363.258858-.80269375l1.92354933-1.45643172c.2663188-.20164557.6358663-.20164557.9021851 0zm-6.7497808 7.0547262 2.24058186 3.74136382c.11856135.1979759.04990924.4520869-.15333879.5675728-.06515843.0370232-.13924017.0565316-.21467432.0565316h-4.48116372c-.23530099 0-.42605013-.1858012-.42605013-.4149986 0-.0734774.02002793-.1456375.05803702-.2091058l2.24058186-3.74136382c.11856135-.19797587.3794394-.26484719.58268742-.14936126.06348302.03607117.11630704.08752496.1533388.14936126z" fill="#571081"/></svg>